HIERARCHY
ROOT SpineBase
{
  OFFSET 0.000000 0.000000 0.000000
  CHANNELS 6 Xposition Yposition Zposition Zrotation Xrotation Yrotation
  JOINT SpineMid
  {
    OFFSET 0.000000 28.940028 0.000000
    CHANNELS 3 Zrotation Xrotation Yrotation
    JOINT SpineShoulder
    {
      OFFSET -0.136595 21.412763 -0.671908
      CHANNELS 3 Zrotation Xrotation Yrotation
      JOINT Neck
      {
        OFFSET -0.087923 7.061664 -0.504489
        CHANNELS 3 Zrotation Xrotation Yrotation
        JOINT Head
        {
          OFFSET 0.760516 10.716149 2.666012
          CHANNELS 3 Zrotation Xrotation Yrotation
          End Site
          {
            OFFSET 0 0 0
          }
        }
      }
      JOINT ShoulderLeft
      {
        OFFSET -9.589307 -5.376572 -1.731605
        CHANNELS 3 Zrotation Xrotation Yrotation
        JOINT ElbowLeft
        {
          OFFSET -6.308068 -24.706346 9.630719
          CHANNELS 3 Zrotation Xrotation Yrotation
          JOINT WristLeft
          {
            OFFSET -3.894161 -25.919482 7.887254
            CHANNELS 3 Zrotation Xrotation Yrotation
            JOINT HandLeft
            {
              OFFSET -3.817847 -12.774802 8.162868
              CHANNELS 3 Zrotation Xrotation Yrotation
              JOINT HandTipLeft
              {
                OFFSET -2.307759 -8.279920 -0.616615
                CHANNELS 3 Zrotation Xrotation Yrotation
                End Site
                {
                  OFFSET 0 0 0
                }
              }
              JOINT ThumbLeft
              {
                OFFSET 4.675094 -5.015606 -7.991964
                CHANNELS 3 Zrotation Xrotation Yrotation
                End Site
                {
                  OFFSET 0 0 0
                }
              }
            }
          }
        }
      }
      JOINT ShoulderRight
      {
        OFFSET 8.131527 -5.690616 -13.645921
        CHANNELS 3 Zrotation Xrotation Yrotation
        JOINT ElbowRight
        {
          OFFSET 8.833734 -23.472730 -1.269968
          CHANNELS 3 Zrotation Xrotation Yrotation
          JOINT WristRight
          {
            OFFSET 8.447160 -26.031462 5.826211
            CHANNELS 3 Zrotation Xrotation Yrotation
            JOINT HandRight
            {
              OFFSET 1.171617 -6.474511 2.028864
              CHANNELS 3 Zrotation Xrotation Yrotation
              JOINT HandTipRight
              {
                OFFSET 0.164973 -7.154126 1.380665
                CHANNELS 3 Zrotation Xrotation Yrotation
                End Site
                {
                  OFFSET 0 0 0
                }
              }
              JOINT ThumbRight
              {
                OFFSET -3.043036 -1.607688 2.259991
                CHANNELS 3 Zrotation Xrotation Yrotation
                End Site
                {
                  OFFSET 0 0 0
                }
              }
            }
          }
        }
      }
    }
  }
  JOINT HipLeft
  {
    OFFSET -5.081220 -0.388904 -0.167934
    CHANNELS 3 Zrotation Xrotation Yrotation
    JOINT KneeLeft
    {
      OFFSET -3.632741 -52.606220 6.370493
      CHANNELS 3 Zrotation Xrotation Yrotation
      JOINT AnkleLeft
      {
        OFFSET -0.212822 -33.934327 3.867589
        CHANNELS 3 Zrotation Xrotation Yrotation
        JOINT FootLeft
        {
          OFFSET -3.608189 11.005545 -7.110666
          CHANNELS 3 Zrotation Xrotation Yrotation
          End Site
          {
            OFFSET 0 0 0
          }
        }
      }
    }
  }
  JOINT HipRight
  {
    OFFSET 4.379573 1.911120 -6.223688
    CHANNELS 3 Zrotation Xrotation Yrotation
    JOINT KneeRight
    {
      OFFSET 8.259656 -49.418524 -4.837716
      CHANNELS 3 Zrotation Xrotation Yrotation
      JOINT AnkleRight
      {
        OFFSET 5.858684 -33.796865 -1.702762
        CHANNELS 3 Zrotation Xrotation Yrotation
        JOINT FootRight
        {
          OFFSET -6.072320 -4.216167 -11.392009
          CHANNELS 3 Zrotation Xrotation Yrotation
          End Site
          {
            OFFSET 0 0 0
          }
        }
      }
    }
  }
}
MOTION
Frames: 6
Frame Time: 0.033333
31.026025 88.971711 275.846713 1.215398 -1.322029 36.182578 -0.218797 -0.258085 -36.138420 -0.010410 -0.209740 0.036529 -1.901732 -3.643902 0.524294 0.000000 0.000000 0.000000 -14.879938 -23.143221 -1.388942 -12.787050 3.269066 -2.085617 7.464352 6.590951 -2.366527 -16.682573 -1.569786 14.863105 0.000000 0.000000 0.000000 0.000000 0.000000 0.000000 0.744590 2.096466 -0.126225 0.458812 -0.920731 0.343507 1.744139 13.307530 2.854636 -4.710073 -5.315919 -4.063377 0.000000 0.000000 0.000000 0.000000 0.000000 0.000000 -0.396840 0.617224 -36.024113 -0.528068 1.059289 -0.132324 10.241477 -28.800934 -0.313790 0.000000 0.000000 0.000000 -1.140946 0.639901 -36.384835 0.077517 1.479030 0.238297 -0.763802 -1.243780 3.922827 0.000000 0.000000 0.000000
31.077799 88.887692 275.673235 1.348724 -1.532078 36.463256 -0.221823 -0.240142 -36.412058 -0.023996 -0.205487 0.039666 -2.376383 -3.297125 0.603407 0.000000 0.000000 0.000000 -13.043895 -24.609392 -0.096229 -12.192457 -1.966507 -2.512878 10.433710 5.202949 -0.377542 -27.886561 -3.022515 15.713296 0.000000 0.000000 0.000000 0.000000 0.000000 0.000000 1.039550 2.038716 -0.259422 -0.122465 -0.131529 0.575914 1.742283 12.510817 2.663760 -5.060937 -3.526874 -4.096307 0.000000 0.000000 0.000000 0.000000 0.000000 0.000000 -0.642587 0.808599 -36.300892 -0.348301 1.264199 -0.125781 26.457712 -27.629541 11.923775 0.000000 0.000000 0.000000 -1.221586 0.786196 -36.678474 0.094083 1.625640 0.260779 -0.769855 -1.317259 4.053608 0.000000 0.000000 0.000000
31.140315 88.812578 275.480019 1.466777 -1.716819 36.661323 -0.223448 -0.222250 -36.603500 -0.032899 -0.204410 0.042636 -2.550830 -3.444656 0.644328 0.000000 0.000000 0.000000 -10.526331 -27.858226 1.881021 -11.281510 -4.870624 -2.629976 10.441678 6.954560 0.271630 -29.393777 -11.768046 15.261939 0.000000 0.000000 0.000000 0.000000 0.000000 0.000000 1.353795 1.994428 -0.379969 -0.805131 0.588860 0.772452 1.962134 12.156736 2.594962 -5.314595 -4.689048 -4.228691 0.000000 0.000000 0.000000 0.000000 0.000000 0.000000 -0.910781 0.972969 -36.494246 -0.151716 1.479945 -0.118792 33.498519 -27.849019 16.967778 0.000000 0.000000 0.000000 -1.358064 0.902720 -36.889084 0.153397 1.803502 0.283525 -2.207167 -0.255709 6.187316 0.000000 0.000000 0.000000
31.185225 88.758582 275.290227 1.579559 -1.888139 36.789754 -0.232593 -0.203180 -36.725383 -0.044492 -0.204483 0.045021 -2.716131 -3.769541 0.698003 0.000000 0.000000 0.000000 -8.085169 -30.146231 3.750216 -9.324923 -9.003046 -2.555221 8.952392 10.179780 0.477252 -23.487022 -22.887324 14.010624 0.000000 0.000000 0.000000 0.000000 0.000000 0.000000 1.226387 1.452923 -0.630054 -0.726385 1.600876 1.130807 1.415480 11.679266 2.357381 -5.381154 -5.819882 -4.203283 0.000000 0.000000 0.000000 0.000000 0.000000 0.000000 -1.164983 1.129058 -36.616370 0.033483 1.680699 -0.112709 38.609980 -29.887328 20.459827 0.000000 0.000000 0.000000 -1.480727 1.007306 -37.028954 0.199910 1.968220 0.305387 -1.795663 -0.277278 5.160958 0.000000 0.000000 0.000000
31.208204 88.728379 275.114141 1.692022 -2.107341 36.809112 -0.244834 -0.210367 -36.737106 -0.052032 -0.212417 0.047774 -3.013226 -3.801139 0.769574 0.000000 0.000000 0.000000 -6.145858 -31.167456 5.191366 -7.233817 -12.987358 -2.253928 8.365235 11.706389 0.999173 -7.716286 -30.534133 12.360881 0.000000 0.000000 0.000000 0.000000 0.000000 0.000000 1.135122 1.499573 -0.708576 -0.742579 1.870078 1.224427 1.300329 11.235907 2.249261 -5.464338 -6.856635 -4.171502 0.000000 0.000000 0.000000 0.000000 0.000000 0.000000 -1.367375 1.314186 -36.625141 0.194495 1.872725 -0.109188 45.422536 -27.241873 25.469771 0.000000 0.000000 0.000000 -1.543960 1.140274 -37.059553 0.216260 2.119335 0.328390 1.968026 -3.305433 -0.556493 0.000000 0.000000 0.000000
31.204384 88.716851 274.964627 1.786063 -2.331444 36.765719 -0.252756 -0.212909 -36.686596 -0.060831 -0.214950 0.049746 -3.303315 -3.635579 0.833800 0.000000 0.000000 0.000000 -4.699123 -31.620753 6.240696 -4.567144 -16.900077 -1.670858 7.857459 12.463080 1.668008 6.939279 -30.980033 8.892350 0.000000 0.000000 0.000000 0.000000 0.000000 0.000000 1.501057 1.862407 -0.712898 -1.552047 1.715244 1.126235 2.196605 10.760132 2.384536 -6.371630 -8.342229 -4.454221 0.000000 0.000000 0.000000 0.000000 0.000000 0.000000 -1.493148 1.491190 -36.569057 0.307409 2.028213 -0.108541 49.332984 -23.564276 28.306286 0.000000 0.000000 0.000000 -1.562703 1.263143 -37.028097 0.209299 2.254549 0.351474 5.374729 -6.566909 -6.112361 0.000000 0.000000 0.000000
